ModelForces
version=1
nRows=4
nColumns=94
inDegrees=yes

This file contains the forces exerted on a model during a simulation.

A force is a generalized force, meaning that it can be either a force (N) or a torque (Nm).

Units are S.I. units (second, meters, Newtons, ...)
Angles are in degrees.

endheader 
time	addbrev_l	addlong_l	addmagDist_l	addmagIsch_l	addmagMid_l	addmagProx_l	bflh_l	bfsh_l	edl_l	ehl_l	fdl_l	fhl_l	gaslat_l	gasmed_l	glmax1_l	glmax2_l	glmax3_l	glmed1_l	glmed2_l	glmed3_l	glmin1_l	glmin2_l	glmin3_l	grac_l	iliacus_l	perbrev_l	perlong_l	piri_l	psoas_l	recfem_l	sart_l	semimem_l	semiten_l	soleus_l	tfl_l	tibant_l	tibpost_l	vasint_l	vaslat_l	vasmed_l	addbrev_r	addlong_r	addmagDist_r	addmagIsch_r	addmagMid_r	addmagProx_r	bflh_r	bfsh_r	edl_r	ehl_r	fdl_r	fhl_r	gaslat_r	gasmed_r	glmax1_r	glmax2_r	glmax3_r	glmed1_r	glmed2_r	glmed3_r	glmin1_r	glmin2_r	glmin3_r	grac_r	iliacus_r	perbrev_r	perlong_r	piri_r	psoas_r	recfem_r	sart_r	semimem_r	semiten_r	soleus_r	tfl_r	tibant_r	tibpost_r	vasint_r	vaslat_r	vasmed_r	lumbar_extension	lumbar_bending	lumbar_rotation	arm_flex_l	arm_add_l	arm_rot_l	arm_flex_r	arm_add_r	arm_rot_r	elbow_flex_l	elbow_flex_r	pro_sup_l	pro_sup_r	
          6.25236842	        291.27455712	        376.72409049	         67.40372650	          3.58413319	        419.05392679	        456.57164767	         24.17490214	        267.64705673	        105.25713871	         95.73041165	         44.28915025	         40.21584909	         31.97338511	         61.31417017	          7.19248764	         10.38326931	          6.75629004	          8.64590014	          7.07003810	          7.95786183	         90.49847423	          4.18998084	          3.68358068	         72.50998981	        754.33898381	          2.48005940	        201.23786774	          6.42574712	        811.18796057	        344.96156041	        217.66022254	        310.23345952	         19.26301317	        136.21724236	          0.00005776	        341.85411983	         71.53122420	         31.68203681	         93.76812403	         44.35775617	         90.14336498	         48.97141728	         83.51621089	         44.40855642	        149.72844878	        100.45452184	        167.43066561	        164.57855963	        120.40634427	         31.17862602	         70.03764314	          0.00007696	         85.99898340	         82.55723262	         74.34815808	         99.96261135	        204.48047063	         24.42948203	         33.41793375	        445.52349327	          5.72651187	         11.28295110	         13.52180150	         28.37227067	         20.72018209	         16.18163233	         34.39890740	        242.54249512	        564.22092084	        125.03894184	        312.48293064	        195.65182075	         50.62165418	        108.60964025	          5.73016976	        118.73427820	         56.18003630	        234.35842998	        476.46754379	         52.87481595	        -47.34404691	         76.68383528	         43.01877627	        -18.18567631	         -7.54144183	         27.90232836	        -14.65286344	        -11.33411735	         -1.31311893	         -4.27397370	          2.96320986	          1.69738058	          0.04561058	
          6.27263158	        216.37748272	        151.38965947	         39.77496746	          3.61927463	        217.60447083	        351.52759298	          9.85812435	        213.89234239	         91.90444359	         75.58535890	          4.36717217	         30.25599632	         22.84905968	         42.37861383	          9.33551198	         13.69467734	          8.46315976	         10.95297977	          9.28181926	         11.20643481	         64.34325340	          5.26755468	          5.88782664	         63.66807133	        727.45123927	         50.67827389	        231.78325435	         11.94919437	        717.11158919	         -0.00008266	        191.58055436	        141.41789032	          9.52695960	        121.55967064	        210.45810988	        340.58744227	         49.75631528	         36.51754379	        106.14309860	         51.77323596	        279.69993554	         23.62771187	         49.46493014	         31.33081835	        203.16127894	         84.35979377	        270.09221780	        120.36159048	         76.00309666	         43.36769659	         56.48131367	        176.97423435	         44.85922117	         49.16196158	         50.88180643	         66.58649900	        132.12665908	         19.66243925	         26.93430618	        378.16701653	          4.46322710	          9.87088476	         16.62554868	        174.92778092	         14.48087857	        111.13172863	         42.13746627	        567.14934349	       1862.59706291	         31.50885366	        213.74627378	         42.31731387	         45.76409815	        115.04590591	          6.13794009	         80.82136569	        281.39353957	        249.51787094	        768.44019769	        375.19789636	       -156.94274106	        -29.02826470	       -107.74113447	        -49.42379071	         61.20754764	         65.85399163	        -48.08819692	          8.15409700	         10.32599389	         -4.20872925	         -4.36496807	          2.44228891	          0.25713660	
          6.29289474	        109.08016428	        146.18936274	         26.12305793	          4.33311020	        107.23122726	        270.67565948	          4.22547358	         89.64891753	         30.51111393	         38.19669829	         82.09652073	         -0.00001104	          4.71601755	          7.51440826	         11.29004885	         16.65570327	         15.27641737	         12.54601686	         10.95115321	         14.73896571	         43.95452083	          5.84828531	         21.78771051	         35.80218430	        294.13234638	         73.09395153	         89.45116592	         45.24308702	        621.91400728	       1301.06640419	        164.07410535	         10.18836925	          4.63271281	         63.04559489	        392.16225486	        130.76471859	         25.20348093	         26.04630462	         -0.00019699	         41.38478696	        505.48412611	         34.53188480	         25.62031617	         16.61522867	        117.93140146	        101.89395881	        171.09471991	         88.77577394	         87.79258888	         35.97484662	         58.35674592	        196.86194515	         24.77853938	         26.59662168	         66.72915420	         72.43910767	         62.81213080	         15.56581725	         15.99308122	        169.43186584	          4.40663340	          7.75771653	          9.29681108	        238.64524929	         16.97750928	         61.46678085	         23.22690204	        732.33920417	       1212.76659635	        410.93796978	        148.52038309	        404.80834266	         35.70567134	        102.29515917	          7.25397901	         44.18996820	        188.67923367	         91.87020069	        277.47932480	        142.82050648	       -219.81773216	       -148.12285270	       -192.21334312	        -86.06975646	         54.19942521	         70.32876951	        -42.47395637	          3.88052449	         11.95170141	        -14.02944746	          3.74656971	          2.57008912	          0.17736115	
          6.31315789	        195.88418625	        196.21900568	         16.41574005	          4.04782625	        241.67515513	        250.96825460	         -0.00004320	         50.92146208	        116.80062638	         39.36116126	         11.64750233	        158.32775102	         65.22845794	         93.10808592	         11.58727927	         16.97916722	          9.80513217	         27.64826042	         11.32929698	         14.45574921	         30.21247249	          5.96873597	         25.67704906	         27.34173000	        469.88322097	          8.73130027	        107.27685110	         83.90048157	        644.73362103	       3110.86930747	        110.07112074	         -0.00010995	          3.13779319	        391.39079977	        486.66244335	        242.87398863	         17.77595103	        575.22233902	       6543.69580302	        650.50312807	        512.68914473	         59.84857030	         14.87938760	          7.64028903	        101.36462483	        208.21238618	         55.09225109	         60.42109409	         65.05505888	         37.95362454	         91.24602746	         18.81452349	         14.71857349	         21.19359411	        324.09033818	         25.03797240	         23.17498204	          7.41388420	          2.58844000	        200.95964407	          3.55581564	          3.93286454	          0.95689816	        344.72342822	         18.33803206	         44.05200176	         15.31931882	        255.33983263	       1692.25580905	        963.48692065	         91.58554089	        692.27187363	         21.46157720	         51.15339661	          7.59542085	         83.68255668	        335.40644531	         41.39374357	        120.21688224	         66.06031197	       -255.05858258	       -214.87426566	       -184.85968213	         -8.75483281	        -35.38152822	         10.89539317	         27.72457354	         -4.95556792	          5.65864947	         -5.33462329	         29.17076382	          1.08076207	         -0.24950153	
